# xmcd
#
# Track frame offsets: 
#        150
#        20593
#        51445
#        77575
#        111015
#        118885
#        142951
#        169484
#        209016
#        266578
#        278693
#        322479
#
# Disc length: 4600 seconds
#
# Revision: 6
# Processed by: cddbd v1.5.2PL0 Copyright (c) Steve Scherf et al.
# Submitted via: ExactAudioCopy v1.0b1
#
DISCID=bc11f60c
DTITLE=Marc-André Hamelin - Chopin: Piano sonatas nos. 2 and 3
DYEAR=2008
DGENRE=Piano
TTITLE0=Berceuse, piano, D-Flat Major     Op. 57  BI 154
TTITLE1=Sonata, piano, no. 02, b-flat minor   Grave - Doppio movimento
TTITLE1=Op. 35  BI 128
TTITLE2=Sonata, piano, no. 02, b-flat minor   Scherzo  Op. 35  BI 128
TTITLE3=Sonata, piano, no. 02, b-flat minor   Marche funèbre: Lento  O
TTITLE3=p. 35  BI 128
TTITLE4=Sonata, piano, no. 02, b-flat minor   Finale: Presto  Op. 35  
TTITLE4=BI 128 
TTITLE5=Nocturne, piano, no. 07, c-sharp minor     Op. 27  No. 1  BI 0
TTITLE5=91
TTITLE6=Nocturne, piano, no. 08, D-flat major     Op. 27  No. 2  BI 09
TTITLE6=6
TTITLE7=Barcarolle, piano, F-Sharp Major     Op. 60  BI 158 
TTITLE8=Sonata, piano, no. 03, b minor   Allegro maestoso  Op. 58  BI 
TTITLE8=155
TTITLE9=Sonata, piano, no. 03, b minor   Scherzo: Molto vivace  Op. 58
TTITLE9=BI 155
TTITLE10=Sonata, piano, no. 03, b minor   Largo  Op. 58  BI 155
TTITLE11=Sonata, piano, no. 03, b minor   Finale: Presto, non tanto  O
TTITLE11=p. 58  BI 155  
EXTD=Hyperion CDA67706
EXTT0=
EXTT1=
EXTT2=
EXTT3=
EXTT4=
EXTT5=
EXTT6=
EXTT7=
EXTT8=
EXTT9=
EXTT10=
EXTT11=
PLAYORDER=
